<?xml version="1.0" encoding="UTF-8"?>
<svg version="1.1" xmlns="http://www.w3.org/2000/svg" width="360" height="331">
<path d="M0 0 C0.99 0.33 1.98 0.66 3 1 C2.88924759 5.16717179 2.75882729 9.33351045 2.625 13.5 C2.5940625 14.67304688 2.563125 15.84609375 2.53125 17.0546875 C2.31955423 23.33499528 1.83263633 28.98060913 0 35 C0.66 35 1.32 35 2 35 C3.16005393 41.15345297 3.02948153 46.95387803 2.8125 53.1875 C2.79380859 54.26064453 2.77511719 55.33378906 2.75585938 56.43945312 C2.17690577 73.22910775 -6.32199886 86.29940523 -17.58203125 98.21484375 C-18.44987495 99.13876167 -18.44987495 99.13876167 -19.33525085 100.0813446 C-30.72436066 112.08319626 -42.58244183 123.64604574 -54.3125 135.3125 C-58.73759951 139.71391949 -63.16098659 144.11703486 -67.58025169 148.52431297 C-69.33819099 150.27578332 -71.09911204 152.0242173 -72.86018372 153.77253723 C-73.92687304 154.83559799 -74.99342445 155.89879718 -76.05981445 156.9621582 C-77.45874687 158.3532354 -77.45874687 158.3532354 -78.88594055 159.77241516 C-81.02764189 161.81251543 -81.02764189 161.81251543 -82 164 C-82.66 164 -83.32 164 -84 164 C-84.27585938 164.60070312 -84.55171875 165.20140625 -84.8359375 165.8203125 C-86 168 -86 168 -88.625 170.875 C-99.55239227 183.35961278 -103.63670839 196.63423628 -103 213 C-102.01 213 -101.02 213 -100 213 C-99.85304688 212.05640625 -99.70609375 211.1128125 -99.5546875 210.140625 C-96.97283868 195.36176625 -90.65054531 180.98618169 -79 171 C-78.34 171 -77.68 171 -77 171 C-77 170.34 -77 169.68 -77 169 C-76.34 169 -75.68 169 -75 169 C-75 168.34 -75 167.68 -75 167 C-73.34997172 165.64613064 -71.6825613 164.31321858 -70 163 C-69.67 162.34 -69.34 161.68 -69 161 C-68.34 161 -67.68 161 -67 161 C-67 160.34 -67 159.68 -67 159 C-66.34 159 -65.68 159 -65 159 C-65 158.34 -65 157.68 -65 157 C-64.34 157 -63.68 157 -63 157 C-63 156.34 -63 155.68 -63 155 C-62.34 155 -61.68 155 -61 155 C-61 154.34 -61 153.68 -61 153 C-60.34 153 -59.68 153 -59 153 C-59 152.34 -59 151.68 -59 151 C-58.34 151 -57.68 151 -57 151 C-57 150.34 -57 149.68 -57 149 C-56.34 149 -55.68 149 -55 149 C-55 148.34 -55 147.68 -55 147 C-54.34 147 -53.68 147 -53 147 C-53 146.34 -53 145.68 -53 145 C-52.34 145 -51.68 145 -51 145 C-51 144.34 -51 143.68 -51 143 C-50.34 143 -49.68 143 -49 143 C-49 142.34 -49 141.68 -49 141 C-48.34 141 -47.68 141 -47 141 C-47 140.34 -47 139.68 -47 139 C-46.34 139 -45.68 139 -45 139 C-45 138.34 -45 137.68 -45 137 C-44.34 137 -43.68 137 -43 137 C-43 136.34 -43 135.68 -43 135 C-41.125 132.875 -41.125 132.875 -39 131 C-38.34 131 -37.68 131 -37 131 C-37 130.34 -37 129.68 -37 129 C-35.38221315 127.28584678 -33.70496537 125.62746694 -32 124 C-17.53423071 109.7262542 -4.2529401 96.13627038 1 76 C1.33 76 1.66 76 2 76 C2.12552064 79.91006464 2.21521802 83.81931728 2.2746582 87.73095703 C2.31156222 89.69996473 2.3751618 91.66841495 2.43945312 93.63671875 C2.70645232 114.67625492 -10.62613036 129.75274421 -24.23828125 144.41015625 C-26 146 -26 146 -28 146 C-28.33 146.99 -28.66 147.98 -29 149 C-29.66 149 -30.32 149 -31 149 C-31.2475 149.57234375 -31.495 150.1446875 -31.75 150.734375 C-33.19316199 153.35010611 -34.88216222 155.14773456 -37 157.25 C-37.70125 157.95640625 -38.4025 158.6628125 -39.125 159.390625 C-41 161 -41 161 -43 161 C-43.33 161.99 -43.66 162.98 -44 164 C-44.66 164 -45.32 164 -46 164 C-46.2475 164.57234375 -46.495 165.1446875 -46.75 165.734375 C-48.19316199 168.35010611 -49.88216222 170.14773456 -52 172.25 C-52.70125 172.95640625 -53.4025 173.6628125 -54.125 174.390625 C-56 176 -56 176 -58 176 C-58.33 176.99 -58.66 177.98 -59 179 C-59.66 179 -60.32 179 -61 179 C-61.2475 179.57234375 -61.495 180.1446875 -61.75 180.734375 C-63.19316199 183.35010611 -64.88216222 185.14773456 -67 187.25 C-67.70125 187.95640625 -68.4025 188.6628125 -69.125 189.390625 C-71 191 -71 191 -73 191 C-73.26039063 191.55300781 -73.52078125 192.10601562 -73.7890625 192.67578125 C-75.15858651 195.30438378 -76.74085177 197.7148696 -78.375 200.1875 C-82.53917957 206.69403058 -86.34722074 213.16664892 -87 221 C-87.06316406 221.68835938 -87.12632813 222.37671875 -87.19140625 223.0859375 C-87.4901301 228.73278184 -86.5325757 233.45344424 -83 238 C-80.9467814 239.23076859 -80.9467814 239.23076859 -79 240 C-79.33 240.99 -79.66 241.98 -80 243 C-87.42042805 241.01238534 -91.67629979 237.36093239 -96 231 C-96.875 227.5 -96.875 227.5 -97 225 C-97.66 224.67 -98.32 224.34 -99 224 C-99 222.68 -99 221.36 -99 220 C-99.75925781 219.92652344 -100.51851562 219.85304687 -101.30078125 219.77734375 C-104.76386125 218.7800168 -105.39780968 217.63808042 -107.1875 214.5625 C-113.52531329 203.09252427 -112.5334864 190.62387915 -111 178 C-112.32 178.33 -113.64 178.66 -115 179 C-116 176 -116 176 -115 173 C-115.66 172.67 -116.32 172.34 -117 172 C-116.26944 146.50597502 -110.2246208 128.03689322 -92.55834961 108.99414062 C-92.03729865 108.4314724 -91.51624769 107.86880417 -90.97940731 107.28908539 C-85.05330192 100.92924107 -78.91404376 94.7881155 -72.75390625 88.65625 C-71.52727967 87.43149646 -70.30087958 86.20651606 -69.07469177 84.98132324 C-65.8880217 81.7984195 -62.69836126 78.61852997 -59.50799561 75.43933105 C-56.2567423 72.19837976 -53.00837755 68.95453604 -49.75976562 65.7109375 C-44.52264356 60.48253747 -39.28384639 55.25582351 -34.04263306 50.03152466 C-32.69482665 48.68794593 -31.34740613 47.34398014 -30 46 C-29.11509384 45.11775757 -28.23018768 44.23551514 -27.31846619 43.32653809 C-14.6992351 30.66337228 -3.24855789 18.08078933 0 0 Z M-1 40 C0 43 0 43 0 43 Z M-4 41 C-6.02371444 43.65492971 -7.89061524 46.37544731 -9.75195312 49.14453125 C-17.15144172 59.88013873 -26.74913031 68.8801706 -35.96054459 78.03570938 C-38.11635418 80.1785778 -40.26886865 82.32470994 -42.42062378 84.47164917 C-46.98592115 89.0256084 -51.55516061 93.57559925 -56.125 98.125 C-61.43329123 103.40958977 -66.73989886 108.69584811 -72.04229355 113.98635483 C-74.15114497 116.08877957 -76.26301086 118.18814274 -78.37503052 120.28738403 C-100.81864995 142.31378192 -100.81864995 142.31378192 -112 171 C-112 172.32 -112 173.64 -112 175 C-110.10508153 175.0366658 -110.10508153 175.0366658 -108 174 C-106.55923993 171.67101877 -105.36150711 169.45701865 -104.1875 167 C-101.50203381 161.68781414 -98.76994733 156.86994959 -94.9150238 152.29466248 C-93.65032749 150.7792499 -92.40826323 149.24462482 -91.1910553 147.69081116 C-85.15928166 140.05472605 -78.48285338 133.24448393 -71.56628227 126.41595268 C-69.51495643 124.39050697 -67.47025513 122.35856899 -65.42701721 120.32496643 C-61.10283519 116.02342665 -56.77072917 111.72992324 -52.4375 107.4375 C-47.38164602 102.42888012 -42.32910878 97.41700239 -37.28483772 92.39671516 C-35.26793869 90.39279808 -33.24512862 88.39497946 -31.22203064 86.39732361 C-29.99725674 85.17980792 -28.77275892 83.96201441 -27.54858398 82.74389648 C-26.70017441 81.91098587 -26.70017441 81.91098587 -25.83462524 81.06124878 C-24.51792185 79.74491034 -23.25302726 78.37709019 -22 77 C-22 76.34 -22 75.68 -22 75 C-21.34 75 -20.68 75 -20 75 C-18.29317519 73.35126195 -18.29317519 73.35126195 -16.5625 71.25 C-15.66724609 70.20585938 -15.66724609 70.20585938 -14.75390625 69.140625 C-11.32725299 65.50075188 -11.32725299 65.50075188 -10 61 C-9.34 61 -8.68 61 -8 61 C-3.66167355 55.38434136 -1.12677874 50.09960918 -1 43 C-1.495 42.01 -1.495 42.01 -2 41 C-2.66 41 -3.32 41 -4 41 Z M-102 216 C-101 218 -101 218 -101 218 Z M-100 216 C-99 219 -99 219 -99 219 Z " fill="#D7A507" transform="translate(207,0)"/>
<path d="M0 0 C1.40668945 -0.0309375 1.40668945 -0.0309375 2.84179688 -0.0625 C10.29226856 -0.10392027 16.52706399 1.09799548 22.9375 5 C28.07993115 10.4449271 28.0625 14.77547691 28.0625 22.25 C21.1325 22.25 14.2025 22.25 7.0625 22.25 C6.94847055 31.76920834 6.94847055 31.76920834 11.0625 35.25 C13.07612738 35.5753766 13.07612738 35.5753766 15.25 35.375 C19.80320329 35.1288809 23.27305343 35.65131918 28.0625 36.25 C28.0625 49.78 28.0625 63.31 28.0625 77.25 C26.0625 76.25 26.0625 76.25 24.4375 72.625 C21.39378827 66.34593544 16.42108319 61.94607609 9.9375 59.375 C-3.48593886 54.82370528 -19.63170333 56.62566786 -33.34765625 58.75390625 C-35.03674103 59.01013763 -35.03674103 59.01013763 -36.75994873 59.27154541 C-58.20112555 62.61307764 -79.52586264 66.71847803 -100.86767578 70.63378906 C-105.87102556 71.55126714 -110.87543335 72.4627837 -115.88050079 73.37084198 C-118.67706856 73.88018764 -121.47227738 74.39657112 -124.26751709 74.91314697 C-125.97873057 75.22405841 -127.6900104 75.53460491 -129.40136719 75.84472656 C-130.16599777 75.9880542 -130.93062836 76.13138184 -131.71842957 76.27905273 C-136.20038523 77.08170866 -140.38366967 77.38482628 -144.9375 77.25 C-143.2715367 73.56171761 -140.99182119 70.38484712 -138.625 67.125 C-138.19203613 66.52389404 -137.75907227 65.92278809 -137.31298828 65.3034668 C-136.36573684 63.98928462 -135.4171073 62.67609494 -134.46728516 61.36376953 C-132.86473343 59.14945532 -131.26604939 56.93238658 -129.66796875 54.71484375 C-117.3479177 37.6278281 -117.3479177 37.6278281 -113.98681641 33.15209961 C-111.85199202 30.22176403 -111.85199202 30.22176403 -109.94897461 26.81103516 C-106.47573237 20.97098382 -103.37425368 15.98645254 -96.48648071 14.05001831 C-92.90504159 13.30370546 -89.31670262 12.82090459 -85.6875 12.375 C-84.09062032 12.13286163 -82.4946762 11.88448383 -80.8996582 11.63037109 C-77.45365555 11.08811282 -74.00484202 10.57757957 -70.55126953 10.0859375 C-64.5313243 9.21168542 -58.54638908 8.16394098 -52.55859375 7.09375 C-51.52290253 6.90900116 -50.4872113 6.72425232 -49.4201355 6.53390503 C-47.34477379 6.16335034 -45.26946614 5.79249275 -43.19421387 5.42132568 C-38.29236524 4.54878766 -33.38713229 3.6965533 -28.48046875 2.8515625 C-27.20918373 2.63022644 -27.20918373 2.63022644 -25.91221619 2.40441895 C-17.24673011 0.91585184 -8.80041328 0.04818844 0 0 Z " fill="#25524F" transform="translate(144.9375,252.75)"/>
<path d="M0 0 C0.495 0.99 0.495 0.99 1 2 C3.13323736 2.3903745 3.13323736 2.3903745 5.72485352 2.48657227 C12.36957193 2.97891483 18.84437243 4.06027667 25.40234375 5.21484375 C26.64246719 5.4306459 27.88259064 5.64644806 29.16029358 5.86878967 C32.42254488 6.43831321 35.68396147 7.01236784 38.94519043 7.58770752 C41.61114444 8.05577266 44.27845903 8.51581703 46.94577694 8.97603512 C50.14066042 9.52894605 53.33390849 10.09113842 56.52734375 10.65234375 C57.71899643 10.85762192 58.91064911 11.06290009 60.13841248 11.2743988 C61.2437886 11.47122757 62.34916473 11.66805634 63.48803711 11.87084961 C64.45857529 12.04104111 65.42911346 12.2112326 66.42906189 12.38658142 C70.64484762 13.392456 73.12201701 14.69599434 75.55859375 18.28125 C76.01999756 18.94890381 76.48140137 19.61655762 76.95678711 20.30444336 C77.44542236 21.02897705 77.93405762 21.75351074 78.4375 22.5 C79.50938733 24.05409587 80.58233907 25.60745803 81.65625 27.16015625 C82.20796875 27.96211426 82.7596875 28.76407227 83.328125 29.59033203 C85.9788208 33.41077122 88.70652304 37.17423197 91.4375 40.9375 C92.51823459 42.43098566 93.59896371 43.92447527 94.6796875 45.41796875 C96.37755072 47.76150538 98.07589384 50.10469341 99.77441406 52.44775391 C101.53799838 54.88119338 103.30026657 57.31558216 105.0625 59.75 C105.59866943 60.48855225 106.13483887 61.22710449 106.68725586 61.98803711 C115 73.47307986 115 73.47307986 115 76 C111.7 76 108.4 76 105 76 C104.67 75.34 104.34 74.68 104 74 C100.92937696 73.32790925 97.91083509 72.78225684 94.80859375 72.30078125 C93.85256256 72.14495575 92.89653137 71.98913025 91.91152954 71.82858276 C89.8394387 71.4917642 87.76669142 71.15896543 85.69338989 70.8296814 C81.32014437 70.13501379 76.95004563 69.42151164 72.57975769 68.70851135 C70.34326591 68.34367846 68.10662051 67.97978611 65.86982727 67.61680603 C55.25250113 65.8905399 44.6555041 64.0564897 34.0625 62.1875 C32.46997588 61.90727853 30.87744673 61.62708565 29.28491211 61.34692383 C27.76414792 61.07900827 26.24339569 60.81102478 24.72265625 60.54296875 C23.99572067 60.41491348 23.2687851 60.28685822 22.51982117 60.15492249 C18.81752445 59.50157601 15.1166629 58.84117718 11.41748047 58.17041016 C0.59999412 56.21594165 -9.74158953 54.8278884 -20.75 54.875 C-21.66910156 54.87113281 -22.58820313 54.86726563 -23.53515625 54.86328125 C-24.87126953 54.86521484 -24.87126953 54.86521484 -26.234375 54.8671875 C-27.03069336 54.86831543 -27.82701172 54.86944336 -28.64746094 54.87060547 C-36.44243557 55.29934525 -45.57269864 58.26256713 -51 64 C-53.23167533 67.5541496 -55.12493965 71.2498793 -57 75 C-57.66 75 -58.32 75 -59 75 C-58.57611767 57.92910239 -49.56686743 45.66669434 -38.37109375 33.58203125 C-36.50862206 31.55387015 -34.70530561 29.50056978 -32.91015625 27.4140625 C-28.59041426 22.46852288 -24.06056502 17.73231299 -19.45703125 13.05200195 C-18.47939312 12.05257665 -17.50808202 11.04692578 -16.54296875 10.03540039 C-15.12637662 8.55174924 -13.69090988 7.08890529 -12.25 5.62890625 C-10.98929688 4.3306189 -10.98929688 4.3306189 -9.703125 3.00610352 C-6.44078449 0.58498249 -4.0063692 0.26612505 0 0 Z " fill="#25524F" transform="translate(245,255)"/>
<path d="M0 0 C0.66 0 1.32 0 2 0 C6.72618931 5.4436966 8.57778001 12.08372472 10 19 C10.16757812 19.79148438 10.33515625 20.58296875 10.5078125 21.3984375 C13.02912204 37.5455475 5.08647139 53.06096062 -3.9375 65.875 C-7.33072585 70.31076295 -10.98123459 74.48076 -14.76953125 78.58203125 C-16.95708178 80.95347395 -19.07308634 83.37588998 -21.1875 85.8125 C-24.22195338 89.24275165 -27.47338025 92.07365595 -31 95 C-32.80102006 96.96101956 -34.53060645 98.97326408 -36.26171875 100.99609375 C-38.71748352 103.82712145 -41.25488842 106.44640783 -44 109 C-44.66 109 -45.32 109 -46 109 C-46.23203125 109.53625 -46.4640625 110.0725 -46.703125 110.625 C-48.05017607 113.0918887 -49.66354047 115.18448764 -51.42871094 117.36523438 C-56.45059194 123.57855943 -61.75974477 130.22768594 -64 138 C-63.25453502 140.79526172 -63.25453502 140.79526172 -62 143 C-62.99 143 -63.98 143 -65 143 C-65.66 144.65 -66.32 146.3 -67 148 C-67.33 148 -67.66 148 -68 148 C-71.13248538 125.68706564 -66.34707402 109.60159413 -53.02734375 91.62890625 C-47.04703959 83.8740995 -47.04703959 83.8740995 -44 81 C-43.34 81 -42.68 81 -42 81 C-41.78859375 80.45899658 -41.5771875 79.91799316 -41.359375 79.3605957 C-39.49807107 76.12838527 -36.92625836 73.77992106 -34.25 71.23046875 C-33.07115305 70.0818537 -31.8927842 68.9327478 -30.71484375 67.78320312 C-28.87540279 65.99880475 -27.03248036 64.21855548 -25.18017578 62.44750977 C-13.69974192 51.4416669 -3.29654247 39.6999445 1 24 C1.28617188 23.01193359 1.28617188 23.01193359 1.578125 22.00390625 C2.88685605 15.78743375 2.24395131 9.89037219 0 4 C0 2.68 0 1.36 0 0 Z " fill="#D7A506" transform="translate(255,127)"/>
<path d="M0 0 C7.8001554 3.04189067 13.05862636 6.34778037 17.15234375 13.98828125 C21.67515277 24.72213677 20.71969894 36.22478671 17 47 C13.04975389 56.05666182 7.81281227 62.93966341 1 70 C-0.35992093 71.55749435 -1.71428107 73.11986505 -3.0625 74.6875 C-5.48907209 77.42871602 -7.94690881 79.89771523 -10.75 82.25 C-22.5078763 92.22216333 -40.08275341 109.20296827 -42 125 C-41.63143136 127.23167185 -41.63143136 127.23167185 -41 129 C-41.66 129.33 -42.32 129.66 -43 130 C-43.33 130.99 -43.66 131.98 -44 133 C-44.99 133 -45.98 133 -47 133 C-46.98032366 128.80392464 -46.92785195 124.60979796 -46.84741211 120.41455078 C-46.82448571 118.99311403 -46.80989711 117.57151352 -46.80444336 116.14990234 C-46.74597747 103.40433891 -44.0006484 93.10002008 -36.1875 82.8125 C-35.75953125 82.23226074 -35.3315625 81.65202148 -34.890625 81.05419922 C-31.23408223 76.16208135 -27.48809051 71.15808385 -23 67 C-22.34 67 -21.68 67 -21 67 C-20.77054688 66.43023437 -20.54109375 65.86046875 -20.3046875 65.2734375 C-18.66191439 62.41088076 -16.64158887 60.75327248 -14.125 58.625 C-10.29560015 55.27427513 -7.61201991 52.31987908 -5 48 C-4.36964844 47.39929688 -3.73929688 46.79859375 -3.08984375 46.1796875 C3.30045439 39.51466626 7.81417936 28.03640826 8.05859375 18.78125 C7.63287795 14.07120282 6.25047578 10.09908089 4 6 C1.47019293 4.04499143 1.47019293 4.04499143 -1 3 C-0.67 2.01 -0.34 1.02 0 0 Z " fill="#D7A506" transform="translate(233,103)"/>
<path d="M0 0 C0.66 0 1.32 0 2 0 C5.91217906 19.38624447 3.8269033 37.00501663 -6.859375 53.8515625 C-13.98168437 64.32707592 -22.80009741 73.37646087 -31.57226562 82.47119141 C-33.78201182 84.77293629 -35.97219398 87.09205195 -38.15885925 89.41569519 C-40.09052549 91.45790376 -42.04110099 93.48135126 -43.99624634 95.50106812 C-44.94870471 96.49164337 -45.8941741 97.48899174 -46.8321228 98.49331665 C-55.21038095 107.44326638 -55.21038095 107.44326638 -60.8125 108.15234375 C-63.01538086 108.15576172 -63.01538086 108.15576172 -65 108 C-66.01191406 107.96003906 -67.02382812 107.92007813 -68.06640625 107.87890625 C-68.89011719 107.77449219 -69.71382812 107.67007813 -70.5625 107.5625 C-71.40941406 107.46066406 -72.25632813 107.35882813 -73.12890625 107.25390625 C-74.05509766 107.12822266 -74.05509766 107.12822266 -75 107 C-73.83550715 101.9538643 -72.65553326 99.54880236 -69 96 C-67.80727983 94.35187759 -66.64233305 92.68343818 -65.5 91 C-61.35773809 85.18204046 -56.56515092 80.36486614 -51.44140625 75.43359375 C-48.99299028 73.25077029 -48.99299028 73.25077029 -48 71 C-47.34 71 -46.68 71 -46 71 C-46 70.34 -46 69.68 -46 69 C-45.34 69 -44.68 69 -44 69 C-44 68.34 -44 67.68 -44 67 C-42.49609375 65.5546875 -42.49609375 65.5546875 -40.4375 63.875 C-36.68243387 60.70687138 -33.54734343 57.30569764 -30.4453125 53.50390625 C-29.96835938 53.00761719 -29.49140625 52.51132813 -29 52 C-28.34 52 -27.68 52 -27 52 C-27 51.34 -27 50.68 -27 50 C-26.34 50 -25.68 50 -25 50 C-24.7421875 49.43796875 -24.484375 48.8759375 -24.21875 48.296875 C-22.85830223 45.73295421 -21.27211038 43.54773635 -19.5 41.25 C-18.8915625 40.45078125 -18.283125 39.6515625 -17.65625 38.828125 C-17.1096875 38.22484375 -16.563125 37.6215625 -16 37 C-15.34 37 -14.68 37 -14 37 C-13.773125 36.34 -13.54625 35.68 -13.3125 35 C-12.2380824 32.54418834 -11.15395837 30.64641056 -9.6875 28.4375 C-4.05244193 19.55144689 -1.23544676 10.39988018 0 0 Z " fill="#D7A606" transform="translate(266,168)"/>
<path d="M0 0 C1.40668945 -0.0309375 1.40668945 -0.0309375 2.84179688 -0.0625 C10.29226856 -0.10392027 16.52706399 1.09799548 22.9375 5 C28.07993115 10.4449271 28.0625 14.77547691 28.0625 22.25 C21.1325 22.25 14.2025 22.25 7.0625 22.25 C7.0625 21.59 7.0625 20.93 7.0625 20.25 C13.3325 20.25 19.6025 20.25 26.0625 20.25 C25.815 18.31125 25.5675 16.3725 25.3125 14.375 C25.10367188 12.73917969 25.10367188 12.73917969 24.890625 11.0703125 C24.36239193 8.17949092 24.36239193 8.17949092 22.265625 7.00390625 C21.53859375 6.75511719 20.8115625 6.50632812 20.0625 6.25 C19.3715625 5.88519531 18.680625 5.52039063 17.96875 5.14453125 C1.6973255 -2.17232685 -20.16731195 4.37137342 -36.9375 7.25 C-37.69401855 7.3795105 -38.45053711 7.509021 -39.22998047 7.64245605 C-49.49096747 9.40105396 -59.74420779 11.20036711 -69.99269104 13.03033447 C-74.72675472 13.87149169 -79.46489445 14.66639158 -84.21484375 15.4140625 C-85.75060059 15.66446289 -85.75060059 15.66446289 -87.31738281 15.91992188 C-89.11235759 16.21086387 -90.90982232 16.48707512 -92.70996094 16.74414062 C-99.61459302 17.89443094 -102.51694102 21.2351868 -106.55859375 26.7890625 C-107.50169871 28.14806568 -108.44026627 29.51022549 -109.375 30.875 C-113.84195652 37.30283661 -118.40112766 43.64919486 -123.0625 49.9375 C-128.77331913 57.64871905 -134.39288716 65.41855375 -139.9375 73.25 C-139.6075 73.58 -139.2775 73.91 -138.9375 74.25 C-137.01258587 73.99314796 -135.09652885 73.66869685 -133.1875 73.3125 C-129.36595523 72.60184328 -125.8271983 72.12754653 -121.9375 72.25 C-121.6075 71.59 -121.2775 70.93 -120.9375 70.25 C-118.93484497 69.92025757 -118.93484497 69.92025757 -116.26611328 69.77490234 C-109.31303633 69.25939848 -102.53887525 68.07436473 -95.6796875 66.8515625 C-94.32372813 66.61316385 -92.96769827 66.37516585 -91.61160278 66.13754272 C-88.06325366 65.51468351 -84.51587663 64.88645434 -80.96868896 64.25701904 C-77.40938936 63.6264063 -73.84918842 63.00092767 -70.2890625 62.375 C-60.63966971 60.67715724 -50.9908907 58.97579785 -41.34619141 57.25146484 C-40.55439484 57.11034271 -39.76259827 56.96922058 -38.94680786 56.82382202 C-36.98447728 56.47375448 -35.02249169 56.12175441 -33.06054688 55.76953125 C-29.03011794 55.09905339 -25.00046553 54.67030678 -20.9375 54.25 C-19.9475 53.92 -18.9575 53.59 -17.9375 53.25 C-16.02392578 53.21240234 -16.02392578 53.21240234 -13.8828125 53.3359375 C-13.10292969 53.37976563 -12.32304687 53.42359375 -11.51953125 53.46875 C-10.70871094 53.5203125 -9.89789063 53.571875 -9.0625 53.625 C-8.25941406 53.66882813 -7.45632812 53.71265625 -6.62890625 53.7578125 C-2.6495683 53.99381936 1.17180918 54.3206447 5.0625 55.25 C5.0625 55.91 5.0625 56.57 5.0625 57.25 C4.38598389 57.22905273 3.70946777 57.20810547 3.01245117 57.18652344 C-0.24152859 57.10016603 -3.49527079 57.05037723 -6.75 57 C-7.81154297 56.96648437 -8.87308594 56.93296875 -9.96679688 56.8984375 C-40.12498028 56.5547545 -71.33605998 65.21599909 -100.86767578 70.63378906 C-105.87102556 71.55126714 -110.87543335 72.4627837 -115.88050079 73.37084198 C-118.67706856 73.88018764 -121.47227738 74.39657112 -124.26751709 74.91314697 C-125.97873057 75.22405841 -127.6900104 75.53460491 -129.40136719 75.84472656 C-130.16599777 75.9880542 -130.93062836 76.13138184 -131.71842957 76.27905273 C-136.20038523 77.08170866 -140.38366967 77.38482628 -144.9375 77.25 C-143.2715367 73.56171761 -140.99182119 70.38484712 -138.625 67.125 C-138.19203613 66.52389404 -137.75907227 65.92278809 -137.31298828 65.3034668 C-136.36573684 63.98928462 -135.4171073 62.67609494 -134.46728516 61.36376953 C-132.86473343 59.14945532 -131.26604939 56.93238658 -129.66796875 54.71484375 C-117.3479177 37.6278281 -117.3479177 37.6278281 -113.98681641 33.15209961 C-111.85199202 30.22176403 -111.85199202 30.22176403 -109.94897461 26.81103516 C-106.47573237 20.97098382 -103.37425368 15.98645254 -96.48648071 14.05001831 C-92.90504159 13.30370546 -89.31670262 12.82090459 -85.6875 12.375 C-84.09062032 12.13286163 -82.4946762 11.88448383 -80.8996582 11.63037109 C-77.45365555 11.08811282 -74.00484202 10.57757957 -70.55126953 10.0859375 C-64.5313243 9.21168542 -58.54638908 8.16394098 -52.55859375 7.09375 C-51.52290253 6.90900116 -50.4872113 6.72425232 -49.4201355 6.53390503 C-47.34477379 6.16335034 -45.26946614 5.79249275 -43.19421387 5.42132568 C-38.29236524 4.54878766 -33.38713229 3.6965533 -28.48046875 2.8515625 C-27.20918373 2.63022644 -27.20918373 2.63022644 -25.91221619 2.40441895 C-17.24673011 0.91585184 -8.80041328 0.04818844 0 0 Z " fill="#163B38" transform="translate(144.9375,252.75)"/>
<path d="M0 0 C0.495 0.99 0.495 0.99 1 2 C3.13323736 2.3903745 3.13323736 2.3903745 5.72485352 2.48657227 C12.36957193 2.97891483 18.84437243 4.06027667 25.40234375 5.21484375 C26.64246719 5.4306459 27.88259064 5.64644806 29.16029358 5.86878967 C32.42254488 6.43831321 35.68396147 7.01236784 38.94519043 7.58770752 C41.61114444 8.05577266 44.27845903 8.51581703 46.94577694 8.97603512 C50.14066042 9.52894605 53.33390849 10.09113842 56.52734375 10.65234375 C57.71899643 10.85762192 58.91064911 11.06290009 60.13841248 11.2743988 C61.2437886 11.47122757 62.34916473 11.66805634 63.48803711 11.87084961 C64.45857529 12.04104111 65.42911346 12.2112326 66.42906189 12.38658142 C70.64484762 13.392456 73.12201701 14.69599434 75.55859375 18.28125 C76.25142456 19.28369751 76.25142456 19.28369751 76.95825195 20.30639648 C77.69047974 21.39223022 77.69047974 21.39223022 78.4375 22.5 C79.50151261 24.04372168 80.56665608 25.58666439 81.6328125 27.12890625 C82.18356445 27.9295752 82.73431641 28.73024414 83.30175781 29.55517578 C86.08168248 33.55721224 88.94799513 37.49578813 91.8125 41.4375 C96.26750941 47.58501815 100.68407459 53.75367885 105 60 C104.01 60.99 104.01 60.99 103 62 C101.41545708 59.79252608 99.83233947 57.58405258 98.25 55.375 C97.8065625 54.75753906 97.363125 54.14007813 96.90625 53.50390625 C94.19508005 49.71624235 91.57925729 45.87932827 89 42 C87.63738287 40.05377139 86.26264812 38.11596155 84.875 36.1875 C83.85019531 34.75470703 83.85019531 34.75470703 82.8046875 33.29296875 C81.20449587 30.92464032 81.20449587 30.92464032 79 30 C78.566875 29.113125 78.13375 28.22625 77.6875 27.3125 C76.3323284 24.65234833 75.22153091 22.94484627 73.3125 20.75 C71 18 71 18 71 16 C69.31583984 15.81824219 69.31583984 15.81824219 67.59765625 15.6328125 C66.0859089 15.46379727 64.57419174 15.29451188 63.0625 15.125 C62.32708984 15.04636719 61.59167969 14.96773438 60.83398438 14.88671875 C60.09599609 14.80292969 59.35800781 14.71914063 58.59765625 14.6328125 C57.93258057 14.55949707 57.26750488 14.48618164 56.58227539 14.41064453 C54.30659659 14.04875631 52.09985387 13.5887669 49.85375977 13.07983398 C44.83991789 11.94416534 39.80052886 11.00376396 34.7421875 10.08984375 C33.79489777 9.91747696 32.84760803 9.74511017 31.87161255 9.56752014 C29.88347557 9.20619062 27.89518165 8.8457236 25.90673828 8.48608398 C22.87619901 7.93771696 19.84627351 7.38605101 16.81640625 6.83398438 C14.87503558 6.4815748 12.93363048 6.12935477 10.9921875 5.77734375 C10.0941037 5.61378891 9.1960199 5.45023407 8.27072144 5.28172302 C3.52336943 4.42499825 -1.21937387 3.64659003 -6 3 C-6 3.66 -6 4.32 -6 5 C-7.4609375 6.5078125 -7.4609375 6.5078125 -9.375 8.125 C-10.00148437 8.66382813 -10.62796875 9.20265625 -11.2734375 9.7578125 C-13 11 -13 11 -15 11 C-15.66 12.32 -16.32 13.64 -17 15 C-17.66 15 -18.32 15 -19 15 C-19 15.66 -19 16.32 -19 17 C-19.66 17 -20.32 17 -21 17 C-21.66 18.32 -22.32 19.64 -23 21 C-23.66 21 -24.32 21 -25 21 C-25.2475 21.61875 -25.495 22.2375 -25.75 22.875 C-27.23740369 25.40358627 -28.43678009 25.71839004 -31 27 C-31.28101563 27.58007812 -31.56203125 28.16015625 -31.8515625 28.7578125 C-33.3001418 31.58599114 -35.20347949 33.55919242 -37.375 35.875 C-40.62892654 39.42521059 -43.4500301 42.90183409 -46 47 C-46.85061882 48.14846957 -47.70499636 49.29416181 -48.5625 50.4375 C-50.98468049 53.78668784 -52.50812389 57.15253003 -54 61 C-54.66 61 -55.32 61 -56 61 C-53.07534887 49.84976755 -46.08694381 41.91048188 -38.37109375 33.58203125 C-36.50862206 31.55387015 -34.70530561 29.50056978 -32.91015625 27.4140625 C-28.59041426 22.46852288 -24.06056502 17.73231299 -19.45703125 13.05200195 C-18.47939312 12.05257665 -17.50808202 11.04692578 -16.54296875 10.03540039 C-15.12637662 8.55174924 -13.69090988 7.08890529 -12.25 5.62890625 C-10.98929688 4.3306189 -10.98929688 4.3306189 -9.703125 3.00610352 C-6.44078449 0.58498249 -4.0063692 0.26612505 0 0 Z " fill="#153A37" transform="translate(245,255)"/>
<path d="M0 0 C0.66 0 1.32 0 2 0 C2.7811552 4.06578074 3.08419738 7.78039019 2.9140625 11.9140625 C2.87023437 13.00460938 2.82640625 14.09515625 2.78125 15.21875 C2.7296875 16.3428125 2.678125 17.466875 2.625 18.625 C2.58117187 19.75679687 2.53734375 20.88859375 2.4921875 22.0546875 C1.99150321 33.79295262 1.99150321 33.79295262 -0.4375 36.75 C-2 38 -2 38 -4 38 C-4 37.34 -4 36.68 -4 36 C-5.093125 36.20625 -6.18625 36.4125 -7.3125 36.625 C-11 37 -11 37 -14 35 C-13.35494404 31.51669784 -12.01782732 28.90567134 -10 26 C-9.34 26 -8.68 26 -8 26 C-7.7525 25.34 -7.505 24.68 -7.25 24 C-6.2407381 21.57777143 -5.1469149 19.32207661 -3.9375 17 C-2.41590733 14.01337945 -1.41996883 11.35975066 -1 8 C-1.66 7.67 -2.32 7.34 -3 7 C-2.01 4.69 -1.02 2.38 0 0 Z M-1 5 C0 8 0 8 0 8 Z " fill="#D7A503" transform="translate(207,35)"/>
<path d="M0 0 C7.8001554 3.04189067 13.05862636 6.34778037 17.15234375 13.98828125 C20.73647184 22.49439169 20.8314118 32.0718675 19 41 C18.67 41 18.34 41 18 41 C18 36.05 18 31.1 18 26 C17.34 26 16.68 26 16 26 C15.67 26.66 15.34 27.32 15 28 C13.68 27.67 12.36 27.34 11 27 C9.02 29.97 9.02 29.97 7 33 C6.34 32.34 5.68 31.68 5 31 C5.34224609 30.05640625 5.34224609 30.05640625 5.69140625 29.09375 C8.16869334 21.71743328 8.44767867 16.59836439 5.75 9.1875 C3.86641962 5.75669288 2.50804914 4.61180636 -1 3 C-0.67 2.01 -0.34 1.02 0 0 Z " fill="#D5A50D" transform="translate(233,103)"/>
<path d="M0 0 C0.70142624 0.12102585 1.40285248 0.2420517 2.12553406 0.366745 C21.63551 3.73267549 41.14698712 7.08980705 60.65924072 10.44250488 C64.32817584 11.07293898 67.99709491 11.70346648 71.66601562 12.33398438 C78.77732871 13.55607713 85.88865847 14.77807279 93 16 C93 16.66 93 17.32 93 18 C77.59671707 16.49761357 62.42031378 13.74996147 47.1875 11.0625 C42.13985982 10.17529612 37.09170436 9.29110509 32.04296875 8.41015625 C30.83599335 8.19944489 29.62901794 7.98873352 28.38546753 7.77163696 C18.27949202 6.0206576 8.15319164 4.45003298 -2 3 C-1.34 2.01 -0.68 1.02 0 0 Z " fill="#173C3A" transform="translate(237,307)"/>
<path d="M0 0 C0.33 0 0.66 0 1 0 C1.09377123 7.41834582 1.17402193 14.66236293 0 22 C-0.66 22 -1.32 22 -2 22 C-2.33 23.65 -2.66 25.3 -3 27 C-3.66 27 -4.32 27 -5 27 C-5 27.66 -5 28.32 -5 29 C-5.99 28.67 -6.98 28.34 -8 28 C-8 26.68 -8 25.36 -8 24 C-9.98 24 -11.96 24 -14 24 C-13.10635485 22.79004746 -12.20994221 21.58213889 -11.3125 20.375 C-10.76851562 19.64152344 -10.22453125 18.90804687 -9.6640625 18.15234375 C-8.24413363 16.31576909 -6.76315305 14.63754672 -5.1875 12.9375 C-2.63392969 9.50841987 -2.39584303 7.19593609 -2 3 C-1.34 2.01 -0.68 1.02 0 0 Z " fill="#D7A505" transform="translate(207,84)"/>
<path d="M0 0 C1.27875 -0.061875 2.5575 -0.12375 3.875 -0.1875 C4.95394531 -0.23970703 4.95394531 -0.23970703 6.0546875 -0.29296875 C6.69664062 -0.19628906 7.33859375 -0.09960938 8 0 C8.66 0.99 9.32 1.98 10 3 C9.1875 5.5 9.1875 5.5 8 8 C6.89459074 10.78918149 6.89459074 10.78918149 7 13 C6.01 13 5.02 13 4 13 C3.87882813 13.78246094 3.75765625 14.56492187 3.6328125 15.37109375 C3.46523437 16.38300781 3.29765625 17.39492188 3.125 18.4375 C2.96257812 19.44683594 2.80015625 20.45617187 2.6328125 21.49609375 C2.42398438 22.32238281 2.21515625 23.14867187 2 24 C1.34 24.33 0.68 24.66 0 25 C-0.06058594 23.81921875 -0.12117187 22.6384375 -0.18359375 21.421875 C-0.26802582 19.8645723 -0.35267249 18.30728121 -0.4375 16.75 C-0.47681641 15.97269531 -0.51613281 15.19539063 -0.55664062 14.39453125 C-0.59853516 13.64042969 -0.64042969 12.88632812 -0.68359375 12.109375 C-0.72025146 11.41811523 -0.75690918 10.72685547 -0.79467773 10.01464844 C-0.94809117 7.96182061 -0.94809117 7.96182061 -1.57836914 5.88378906 C-2.14774633 3.3398896 -1.31865641 2.17190468 0 0 Z " fill="#C6A62E" transform="translate(187,287)"/>
<path d="M0 0 C4.95 0.33 9.9 0.66 15 1 C15 14.53 15 28.06 15 42 C12.48811576 40.74405788 12.2709532 39.7692029 11.125 37.25 C9.45963532 33.76901216 7.55426896 30.91916452 5 28 C5.99 28 6.98 28 8 28 C9.32 29.65 10.64 31.3 12 33 C12.33 22.77 12.66 12.54 13 2 C11.02 2.33 9.04 2.66 7 3 C4.32189925 3.11196073 1.68267314 3.04625299 -1 3 C-0.67 2.01 -0.34 1.02 0 0 Z " fill="#1B3E3C" transform="translate(158,288)"/>
<path d="M0 0 C0.66 0 1.32 0 2 0 C6.72618931 5.4436966 8.57778001 12.08372472 10 19 C10.16757812 19.79148438 10.33515625 20.58296875 10.5078125 21.3984375 C11.72087549 29.16720263 9.77886899 36.46241953 8 44 C7.67 44 7.34 44 7 44 C7.08378906 42.91203125 7.16757812 41.8240625 7.25390625 40.703125 C8.28388145 27.81190834 8.28388145 27.81190834 7 15 C6.34 14.34 5.68 13.68 5 13 C5.05800781 13.81984375 5.11601562 14.6396875 5.17578125 15.484375 C5.54888508 24.39622642 5.54888508 24.39622642 2.5 27.75 C1.675 28.1625 0.85 28.575 0 29 C0.144375 28.46632812 0.28875 27.93265625 0.4375 27.3828125 C2.46858304 19.23027084 3.03209887 11.95925953 0 4 C0 2.68 0 1.36 0 0 Z " fill="#CEA428" transform="translate(255,127)"/>
<path d="M0 0 C0.66 0 1.32 0 2 0 C2.33 2.97 2.66 5.94 3 9 C3.99 9 4.98 9 6 9 C5.85769192 10.41702513 5.71099254 11.8336096 5.5625 13.25 C5.48128906 14.03890625 5.40007812 14.8278125 5.31640625 15.640625 C5.02365007 17.82364639 4.57935581 19.8773182 4 22 C5.32 21.67 6.64 21.34 8 21 C8 21.66 8 22.32 8 23 C6.68 23 5.36 23 4 23 C4 23.99 4 24.98 4 26 C3.01 26 2.02 26 1 26 C0 23 0 23 1 20 C0.34 19.67 -0.32 19.34 -1 19 C-0.67 12.73 -0.34 6.46 0 0 Z " fill="#CDA72E" transform="translate(91,153)"/>
<path d="M0 0 C-0.33 0.99 -0.66 1.98 -1 3 C-2.423125 3.0928125 -2.423125 3.0928125 -3.875 3.1875 C-10.89924303 4.24184885 -17.13265473 7.35128204 -21.5 13 C-23.42227513 15.86712222 -24.9644693 18.68630177 -26 22 C-26.66 22 -27.32 22 -28 22 C-27.88512252 20.41590006 -27.75765492 18.83271037 -27.625 17.25 C-27.55539063 16.36828125 -27.48578125 15.4865625 -27.4140625 14.578125 C-27.00149945 12.00933618 -26.28839043 10.24158985 -25 8 C-24.01 9.485 -24.01 9.485 -23 11 C-22.30777344 10.31164062 -22.30777344 10.31164062 -21.6015625 9.609375 C-15.38547634 3.7618315 -8.77560247 -0.38968039 0 0 Z " fill="#173C38" transform="translate(214,308)"/>
<path d="M0 0 C0.33 0 0.66 0 1 0 C1.33 4.62 1.66 9.24 2 14 C2.99 14 3.98 14 5 14 C5.33 11.69 5.66 9.38 6 7 C6.33 7 6.66 7 7 7 C7 12.61 7 18.22 7 24 C6.67 23.01 6.34 22.02 6 21 C4.86498047 20.90912109 4.86498047 20.90912109 3.70703125 20.81640625 C0.08035113 19.72264558 -0.53056046 18.21129589 -2.3125 14.9375 C-2.82425781 14.01839844 -3.33601563 13.09929687 -3.86328125 12.15234375 C-4.23839844 11.44207031 -4.61351563 10.73179687 -5 10 C-4.34 9.67 -3.68 9.34 -3 9 C-3 9.66 -3 10.32 -3 11 C-2.34 11 -1.68 11 -1 11 C-1.020625 9.741875 -1.04125 8.48375 -1.0625 7.1875 C-1.10886083 4.35948913 -0.91692961 2.75078884 0 0 Z M3 17 C4 19 4 19 4 19 Z M5 17 C6 20 6 20 6 20 Z " fill="#D0A624" transform="translate(102,199)"/>
<path d="M0 0 C0.66 0.33 1.32 0.66 2 1 C1.07084243 2.62978448 0.13135466 4.25368275 -0.8125 5.875 C-1.33457031 6.77992188 -1.85664063 7.68484375 -2.39453125 8.6171875 C-4 11 -4 11 -7 13 C-7.33 13.99 -7.66 14.98 -8 16 C-10.0625 17.6875 -10.0625 17.6875 -12 19 C-12.33 18.34 -12.66 17.68 -13 17 C-13.86625 18.4540625 -13.86625 18.4540625 -14.75 19.9375 C-17.09242495 23.12580062 -17.39497955 23.40168778 -21 24 C-16.92638378 18.07172924 -12.24454995 13.09413941 -7.07421875 8.1015625 C-4.95829578 6.17493238 -4.95829578 6.17493238 -4 4 C-3.34 4 -2.68 4 -2 4 C-2 3.34 -2 2.68 -2 2 C-1.34 2 -0.68 2 0 2 C0 1.34 0 0.68 0 0 Z " fill="#D1A318" transform="translate(222,235)"/>
<path d="M0 0 C0.33 0 0.66 0 1 0 C1.12552064 3.91006464 1.21521802 7.81931728 1.2746582 11.73095703 C1.31156222 13.69996473 1.3751618 15.66841495 1.43945312 17.63671875 C1.5521216 26.51499488 0.09098987 33.10766418 -4 41 C-5.32 40.01 -6.64 39.02 -8 38 C-7.34 37.01 -6.68 36.02 -6 35 C-5.34 35 -4.68 35 -4 35 C-3.67 33.35 -3.34 31.7 -3 30 C-2.34 30 -1.68 30 -1 30 C-0.97097571 26.72918529 -0.95319316 23.4584037 -0.9375 20.1875 C-0.92912109 19.25873047 -0.92074219 18.32996094 -0.91210938 17.37304688 C-0.90888672 16.48037109 -0.90566406 15.58769531 -0.90234375 14.66796875 C-0.89710693 13.84578857 -0.89187012 13.0236084 -0.88647461 12.17651367 C-0.91258476 9.81827404 -0.91258476 9.81827404 -2 7 C-1.40206327 4.64811553 -0.74118205 2.31074405 0 0 Z " fill="#CFAA37" transform="translate(208,76)"/>
<path d="M0 0 C0.99 0.33 1.98 0.66 3 1 C2.86082451 5.22941329 2.71249779 9.45845778 2.5625 13.6875 C2.52318359 14.88568359 2.48386719 16.08386719 2.44335938 17.31835938 C2.40146484 18.47529297 2.35957031 19.63222656 2.31640625 20.82421875 C2.26141968 22.41882935 2.26141968 22.41882935 2.20532227 24.0456543 C2.0151475 26.78204532 1.6068493 29.32856732 1 32 C0.67 32 0.34 32 0 32 C-0.33 25.73 -0.66 19.46 -1 13 C-1.33 13.99 -1.66 14.98 -2 16 C-2.66 16 -3.32 16 -4 16 C-2.68 10.72 -1.36 5.44 0 0 Z " fill="#D0A623" transform="translate(207,0)"/>
<path d="M0 0 C0.66 0 1.32 0 2 0 C3.69882188 8.41826913 4.24911914 16.41922945 4 25 C3.67 25 3.34 25 3 25 C3 21.04 3 17.08 3 13 C1.68 13 0.36 13 -1 13 C-1 14.98 -1 16.96 -1 19 C-1.66 19 -2.32 19 -3 19 C-3 19.99 -3 20.98 -3 22 C-3.66 22 -4.32 22 -5 22 C-4.80664062 21.41734375 -4.61328125 20.8346875 -4.4140625 20.234375 C-2.29452257 13.56097206 -1.01107936 6.92291987 0 0 Z " fill="#D0A826" transform="translate(266,168)"/>
<path d="M0 0 C0.78688445 2.77723925 1.11949924 5.22610077 1.09765625 8.109375 C1.09443359 8.86347656 1.09121094 9.61757812 1.08789062 10.39453125 C1.07951172 11.17183594 1.07113281 11.94914063 1.0625 12.75 C1.05798828 13.54277344 1.05347656 14.33554688 1.04882812 15.15234375 C1.03708565 17.10159508 1.01915146 19.05080738 1 21 C1.66 21.33 2.32 21.66 3 22 C3.59355614 24.64860427 3.74209269 27.29197322 4 30 C3.34 30.33 2.68 30.66 2 31 C1.505 32.485 1.505 32.485 1 34 C0.01 34 -0.98 34 -2 34 C-1.88168573 29.6398718 -1.75743287 25.27996549 -1.62768555 20.92016602 C-1.5843867 19.43713985 -1.54270801 17.95406546 -1.50268555 16.47094727 C-1.44486042 14.33855661 -1.38120168 12.20640758 -1.31640625 10.07421875 C-1.27974854 8.79119873 -1.24309082 7.50817871 -1.20532227 6.1862793 C-1 3 -1 3 0 0 Z " fill="#CCAA3A" transform="translate(188,202)"/>
<path d="M0 0 C0.33 0 0.66 0 1 0 C0.67 6.93 0.34 13.86 0 21 C0.66 21 1.32 21 2 21 C2.33 20.34 2.66 19.68 3 19 C3.66666667 21.66666667 4.33333333 24.33333333 5 27 C4.01 27 3.02 27 2 27 C1.01 29.475 1.01 29.475 0 32 C-0.33 32 -0.66 32 -1 32 C-1.94112792 25.29627345 -2.02854357 18.80146099 -1.625 12.0625 C-1.58189697 11.329104 -1.53879395 10.59570801 -1.49438477 9.84008789 C-1.26691369 6.46768341 -0.99825356 3.24009419 0 0 Z " fill="#CBA83E" transform="translate(188,243)"/>
<path d="M0 0 C0.33 0 0.66 0 1 0 C1.09796875 0.79664063 1.1959375 1.59328125 1.296875 2.4140625 C2.48292029 10.93081277 2.48292029 10.93081277 7 18 C7.99 18.33 8.98 18.66 10 19 C9.67 19.99 9.34 20.98 9 22 C7.70414084 21.57507874 6.4133956 21.13454118 5.125 20.6875 C4.40570313 20.44386719 3.68640625 20.20023438 2.9453125 19.94921875 C1 19 1 19 -1 16 C-0.01 16 0.98 16 2 16 C1.505 15.175 1.01 14.35 0.5 13.5 C-1.34255434 9.20070654 -1.30892132 6.6338198 -1 2 C-0.67 1.34 -0.34 0.68 0 0 Z " fill="#D0A425" transform="translate(118,221)"/>
<path d="M0 0 C6.35219042 0.54881057 12.67873638 1.16511613 19 2 C19.33 1.34 19.66 0.68 20 0 C23 3.75 23 3.75 23 6 C19.7 6 16.4 6 13 6 C12.67 5.34 12.34 4.68 12 4 C9.19019327 3.30772968 9.19019327 3.30772968 5.9375 2.875 C4.28041016 2.62363281 4.28041016 2.62363281 2.58984375 2.3671875 C1.73519531 2.24601562 0.88054687 2.12484375 0 2 C0 1.34 0 0.68 0 0 Z " fill="#163C3C" transform="translate(337,325)"/>
<path d="M0 0 C0.33 1.32 0.66 2.64 1 4 C0.01 4.495 0.01 4.495 -1 5 C-1.65213292 7.02463255 -1.65213292 7.02463255 -2 9 C-2.66 8.67 -3.32 8.34 -4 8 C-4.3403125 9.175625 -4.3403125 9.175625 -4.6875 10.375 C-6.35265322 13.70530645 -7.58416695 13.78005963 -11 15 C-13.27191416 17.02040748 -13.27191416 17.02040748 -15 19 C-15.66 18.67 -16.32 18.34 -17 18 C-16.59160889 17.5968457 -16.18321777 17.19369141 -15.76245117 16.77832031 C-13.90147279 14.93821617 -12.04446276 13.09415612 -10.1875 11.25 C-9.54490234 10.61578125 -8.90230469 9.9815625 -8.24023438 9.328125 C-7.61826172 8.709375 -6.99628906 8.090625 -6.35546875 7.453125 C-5.78465576 6.88754883 -5.21384277 6.32197266 -4.62573242 5.73925781 C-2.92652264 3.92139169 -1.45724172 2.01504683 0 0 Z " fill="#D0A41F" transform="translate(245,173)"/>
<path d="M0 0 C0.6875 1.6875 0.6875 1.6875 1 4 C-0.3125 6.75 -0.3125 6.75 -2 9 C-2.66 9 -3.32 9 -4 9 C-4.39832031 9.86238281 -4.39832031 9.86238281 -4.8046875 10.7421875 C-6.44697273 13.84428183 -8.58971991 16.44629558 -10.7578125 19.1953125 C-12.18899425 20.90943097 -12.18899425 20.90943097 -12 23 C-13.32 23 -14.64 23 -16 23 C-16 23.66 -16 24.32 -16 25 C-16.66 24.67 -17.32 24.34 -18 24 C-17.39865234 23.34257813 -17.39865234 23.34257813 -16.78515625 22.671875 C-7.22394474 12.1362335 -7.22394474 12.1362335 0 0 Z " fill="#C8A427" transform="translate(204,89)"/>
<path d="M0 0 C0 3 0 3 -2.08203125 5.26953125 C-3.89426371 6.95731856 -5.70676136 8.64482118 -7.51953125 10.33203125 C-10.07266979 13.07816293 -11.39529051 15.64043275 -13 19 C-15.5625 20.9375 -15.5625 20.9375 -18 22 C-18.66 21.67 -19.32 21.34 -20 21 C-18.71937515 19.2925002 -17.38232443 17.62626404 -16 16 C-15.34 16 -14.68 16 -14 16 C-13.79632813 15.46890625 -13.59265625 14.9378125 -13.3828125 14.390625 C-11.40494391 10.97125896 -8.69673101 8.48662079 -5.875 5.75 C-5.31167969 5.19570312 -4.74835938 4.64140625 -4.16796875 4.0703125 C-2.78313972 2.70895515 -1.39216796 1.35385141 0 0 Z " fill="#CEA936" transform="translate(227,192)"/>
<path d="M0 0 C0.66 0 1.32 0 2 0 C2.79790205 4.12115063 3.07327696 7.86491877 2.87890625 12.0546875 C2.83056641 13.16328125 2.78222656 14.271875 2.73242188 15.4140625 C2.67634766 16.55617188 2.62027344 17.69828125 2.5625 18.875 C2.51029297 20.0403125 2.45808594 21.205625 2.40429688 22.40625 C2.27514203 25.27113925 2.14019818 28.13563347 2 31 C1.67 31 1.34 31 1 31 C0.67 23.08 0.34 15.16 0 7 C-0.99 7 -1.98 7 -3 7 C-2.01 4.69 -1.02 2.38 0 0 Z " fill="#D0B150" transform="translate(207,35)"/>
<path d="M0 0 C1.32 0.33 2.64 0.66 4 1 C2.61811547 4.21043882 1.07578097 6.04936365 -1.625 8.25 C-2.25664062 8.77078125 -2.88828125 9.2915625 -3.5390625 9.828125 C-4.02117187 10.21484375 -4.50328125 10.6015625 -5 11 C-5.33 9.02 -5.66 7.04 -6 5 C-5.195625 4.54625 -4.39125 4.0925 -3.5625 3.625 C-0.91143428 2.25274335 -0.91143428 2.25274335 0 0 Z " fill="#D4A418" transform="translate(236,242)"/>
<path d="M0 0 C0.33 0.99 0.66 1.98 1 3 C-0.125 4.75 -0.125 4.75 -2 7 C-5.45484907 11.46901444 -7.95516798 15.72648585 -10 21 C-10.66 21 -11.32 21 -12 21 C-9.88444103 12.93443144 -5.95439919 5.95439919 0 0 Z " fill="#20403A" transform="translate(201,295)"/>
<path d="M0 0 C0.66 0 1.32 0 2 0 C2 1.32 2 2.64 2 4 C-4.93 4 -11.86 4 -19 4 C-19 3.34 -19 2.68 -19 2 C-12.73 2 -6.46 2 0 2 C0 1.34 0 0.68 0 0 Z " fill="#1E3F3D" transform="translate(171,271)"/>
<path d="M0 0 C2.475 0.99 2.475 0.99 5 2 C2.53974941 6.51045941 -0.60282037 10.18504423 -4 14 C-4.33 12.68 -4.66 11.36 -5 10 C-3.68 9.67 -2.36 9.34 -1 9 C-1.20625 7.88625 -1.4125 6.7725 -1.625 5.625 C-1.74875 4.42875 -1.8725 3.2325 -2 2 C-1.34 1.34 -0.68 0.68 0 0 Z " fill="#D3A717" transform="translate(194,122)"/>
<path d="M0 0 C0.33 1.32 0.66 2.64 1 4 C-1.93510494 7.53939125 -5.08260762 9.68974296 -9 12 C-10.36984198 13.29579647 -11.7151049 14.61992749 -13 16 C-13.66 15.67 -14.32 15.34 -15 15 C-10.05 10.05 -5.1 5.1 0 0 Z " fill="#C9A41F" transform="translate(181,80)"/>
<path d="M0 0 C0.68707555 2.49064888 1 4.37886292 1 7 C-1.53184488 9.35723489 -2.47190093 10 -6 10 C-6.99 9.67 -7.98 9.34 -9 9 C-8.01 8.67 -7.02 8.34 -6 8 C-5.31513275 6.67592331 -4.65129797 5.34090759 -4 4 C-2.70529025 2.62913085 -1.37849103 1.28659163 0 0 Z " fill="#DDB709" transform="translate(218,162)"/>
<path d="M0 0 C0.99 0.66 1.98 1.32 3 2 C1.35718838 3.66964521 -0.28932761 5.3356464 -1.9375 7 C-3.31228516 8.3921875 -3.31228516 8.3921875 -4.71484375 9.8125 C-7 12 -7 12 -8 12 C-7.67 9.69 -7.34 7.38 -7 5 C-6.34 5 -5.68 5 -5 5 C-5 4.34 -5 3.68 -5 3 C-3.35 3 -1.7 3 0 3 C0 2.01 0 1.02 0 0 Z " fill="#D5A91F" transform="translate(173,149)"/>
<path d="M0 0 C1.32 0.33 2.64 0.66 4 1 C2.64199529 3.96530497 1.07571737 6.29131271 -1.0625 8.75 C-1.85333984 9.67039063 -1.85333984 9.67039063 -2.66015625 10.609375 C-3.10230469 11.06828125 -3.54445312 11.5271875 -4 12 C-4.33 12 -4.66 12 -5 12 C-5 10.35 -5 8.7 -5 7 C-4.34 7 -3.68 7 -3 7 C-2.01 4.69 -1.02 2.38 0 0 Z " fill="#D0A318" transform="translate(205,235)"/>
<path d="M0 0 C1.43903046 0.62146808 2.87616793 1.24732059 4.3125 1.875 C5.51326172 2.39707031 5.51326172 2.39707031 6.73828125 2.9296875 C9 4 9 4 12 6 C12 6.66 12 7.32 12 8 C10.35 7.67 8.7 7.34 7 7 C6.67 7.66 6.34 8.32 6 9 C5.21625 8.195625 4.4325 7.39125 3.625 6.5625 C1.28017144 4.01309583 1.28017144 4.01309583 -1 3 C-0.67 2.01 -0.34 1.02 0 0 Z " fill="#CFA82D" transform="translate(233,103)"/>
<path d="M0 0 C0.66 0.33 1.32 0.66 2 1 C1.67 1.99 1.34 2.98 1 4 C-1.0625 4.6875 -1.0625 4.6875 -3 5 C-3.04125 5.556875 -3.0825 6.11375 -3.125 6.6875 C-4.48977108 10.294395 -6.91080176 11.73038496 -10 14 C-10.66 14 -11.32 14 -12 14 C-12 13.34 -12 12.68 -12 12 C-11.34 12 -10.68 12 -10 12 C-10 11.34 -10 10.68 -10 10 C-9.34 10 -8.68 10 -8 10 C-8 9.34 -8 8.68 -8 8 C-7.34 8 -6.68 8 -6 8 C-6 7.34 -6 6.68 -6 6 C-5.34 6 -4.68 6 -4 6 C-4 5.34 -4 4.68 -4 4 C-3.34 4 -2.68 4 -2 4 C-2 3.34 -2 2.68 -2 2 C-1.34 2 -0.68 2 0 2 C0 1.34 0 0.68 0 0 Z " fill="#CEA82A" transform="translate(162,137)"/>
<path d="M0 0 C0.66 0 1.32 0 2 0 C2.03738281 0.67546875 2.07476562 1.3509375 2.11328125 2.046875 C2.17902344 2.93890625 2.24476563 3.8309375 2.3125 4.75 C2.37050781 5.63171875 2.42851562 6.5134375 2.48828125 7.421875 C3.0641181 10.32303774 4.07596148 11.79225607 6 14 C5.67 14.66 5.34 15.32 5 16 C4.01 16 3.02 16 2 16 C2 15.01 2 14.02 2 13 C1.34 13 0.68 13 0 13 C0 8.71 0 4.42 0 0 Z " fill="#1E4644" transform="translate(150,275)"/>
<path d="M0 0 C-1.28548409 1.33929505 -2.57858155 2.67128643 -3.875 4 C-4.59429687 4.7425 -5.31359375 5.485 -6.0546875 6.25 C-8 8 -8 8 -10 8 C-10 6.35 -10 4.7 -10 3 C-8.68 3.33 -7.36 3.66 -6 4 C-6.66 2.35 -7.32 0.7 -8 -1 C-3.375 -2.25 -3.375 -2.25 0 0 Z " fill="#D5A91F" transform="translate(144,183)"/>
<path d="M0 0 C1.27875 -0.061875 2.5575 -0.12375 3.875 -0.1875 C4.95394531 -0.23970703 4.95394531 -0.23970703 6.0546875 -0.29296875 C6.69664062 -0.19628906 7.33859375 -0.09960938 8 0 C8.66 0.99 9.32 1.98 10 3 C9.1875 5.5 9.1875 5.5 8 8 C7.67 8.99 7.34 9.98 7 11 C6.67 8.69 6.34 6.38 6 4 C4.68 3.67 3.36 3.34 2 3 C2 2.34 2 1.68 2 1 C1.34 0.67 0.68 0.34 0 0 Z " fill="#BB9F34" transform="translate(187,287)"/>
<path d="M0 0 C0.33 0 0.66 0 1 0 C1 5.61 1 11.22 1 17 C0.67 16.01 0.34 15.02 0 14 C-0.804375 13.87625 -1.60875 13.7525 -2.4375 13.625 C-3.283125 13.41875 -4.12875 13.2125 -5 13 C-5.33 12.34 -5.66 11.68 -6 11 C-5.34 10.67 -4.68 10.34 -4 10 C-3.34 9.01 -2.68 8.02 -2 7 C-1.67 6.67 -1.34 6.34 -1 6 C-0.63371323 4.00577205 -0.29868656 2.00546689 0 0 Z M-3 10 C-2 12 -2 12 -2 12 Z M-1 10 C0 13 0 13 0 13 Z " fill="#CCAA37" transform="translate(108,206)"/>
<path d="M0 0 C0.33 0 0.66 0 1 0 C1 9.24 1 18.48 1 28 C0.67 28 0.34 28 0 28 C0 21.4 0 14.8 0 8 C-0.66 8 -1.32 8 -2 8 C-1.125 1.125 -1.125 1.125 0 0 Z " fill="#D1A61A" transform="translate(207,42)"/>
<path d="M0 0 C0.99 0.33 1.98 0.66 3 1 C2.67 9.58 2.34 18.16 2 27 C1.67 27 1.34 27 1 27 C0.97494385 26.41508789 0.9498877 25.83017578 0.92407227 25.22753906 C0.80777038 22.56815529 0.68519933 19.90909597 0.5625 17.25 C0.50352539 15.86941406 0.50352539 15.86941406 0.44335938 14.4609375 C0.40146484 13.57148438 0.35957031 12.68203125 0.31640625 11.765625 C0.27974854 10.94868164 0.24309082 10.13173828 0.20532227 9.29003906 C0.06933997 7.00599097 0.06933997 7.00599097 -0.58227539 4.88964844 C-1 3 -1 3 0 0 Z " fill="#CEB355" transform="translate(207,0)"/>
<path d="M0 0 C-0.99 0.495 -0.99 0.495 -2 1 C-2.309375 1.61875 -2.61875 2.2375 -2.9375 2.875 C-4.02905268 5.05810535 -5.20711515 6.37010468 -7 8 C-8.32 7.01 -9.64 6.02 -11 5 C-7.95765678 0.43648516 -5.38704732 -0.29928041 0 0 Z " fill="#D2A614" transform="translate(205,40)"/>
<path d="M0 0 C1.51953125 1.859375 1.51953125 1.859375 3 4 C2.6875 6.25 2.6875 6.25 2 8 C0.35 8 -1.3 8 -3 8 C-3.33 9.32 -3.66 10.64 -4 12 C-4.33 11.34 -4.66 10.68 -5 10 C-4.00390625 7.6171875 -4.00390625 7.6171875 -2.5625 4.875 C-1.85287109 3.50988281 -1.85287109 3.50988281 -1.12890625 2.1171875 C-0.75636719 1.41851562 -0.38382813 0.71984375 0 0 Z " fill="#D3A719" transform="translate(194,190)"/>
<path d="M0 0 C0.66 0.33 1.32 0.66 2 1 C2.35368021 8.12600133 1.95671348 13.47059106 -1 20 C-1.66 19.34 -2.32 18.68 -3 18 C-2.77183594 17.35933594 -2.54367188 16.71867187 -2.30859375 16.05859375 C-0.45171869 10.47131497 0.22307421 6.74844878 -1 1 C-0.67 0.67 -0.34 0.34 0 0 Z " fill="#CEA723" transform="translate(241,116)"/>
<path d="M0 0 C0.99 0 1.98 0 3 0 C2.979375 1.11375 2.95875 2.2275 2.9375 3.375 C2.73619282 6.83215921 2.73619282 6.83215921 4 9 C2.35 9 0.7 9 -1 9 C-1.125 2.25 -1.125 2.25 0 0 Z " fill="#D39F0D" transform="translate(190,291)"/>
<path d="M0 0 C0.66 0.33 1.32 0.66 2 1 C2 1.66 2 2.32 2 3 C6.95 3.33 11.9 3.66 17 4 C10.99271477 7.00364261 4.48664859 6.72977296 -2 5 C-1.34 3.35 -0.68 1.7 0 0 Z " fill="#CAA234" transform="translate(193,270)"/>
<path d="M0 0 C0 0.99 0 1.98 0 3 C0.31088368 4.67099977 0.64080332 6.33871537 1 8 C0.0925 7.9175 -0.815 7.835 -1.75 7.75 C-5.10041408 7.68975201 -5.10041408 7.68975201 -7.375 10 C-7.91125 10.66 -8.4475 11.32 -9 12 C-9.66 11.67 -10.32 11.34 -11 11 C-7.37 7.37 -3.74 3.74 0 0 Z " fill="#CEA221" transform="translate(165,96)"/>
<path d="M0 0 C2.475 0.99 2.475 0.99 5 2 C3.84826645 4.46800047 2.95216435 6.04783565 1 8 C-1.625 7.625 -1.625 7.625 -4 7 C-2.68 4.69 -1.36 2.38 0 0 Z " fill="#D2A710" transform="translate(197,61)"/>
<path d="M0 0 C1.32 0.66 2.64 1.32 4 2 C1.03 4.97 -1.94 7.94 -5 11 C-5 7.5551941 -4.28787023 5.18578426 -3 2 C-2.01 1.34 -1.02 0.68 0 0 Z " fill="#D1A421" transform="translate(221,258)"/>
<path d="M0 0 C0.33 0 0.66 0 1 0 C1.50423019 5.29441695 0.18923033 7.81413519 -3 12 C-3.99 11.67 -4.98 11.34 -6 11 C-4.55007731 6.89188572 -2.54592427 3.53144334 0 0 Z " fill="#D1A21C" transform="translate(252,162)"/>
<path d="M0 0 C0.33 0.66 0.66 1.32 1 2 C1.66 2.33 2.32 2.66 3 3 C1.71034824 4.37562854 0.37310707 5.70766393 -1 7 C-1.66 7 -2.32 7 -3 7 C-3.33 7.66 -3.66 8.32 -4 9 C-4.99 8.34 -5.98 7.68 -7 7 C-4.69 4.69 -2.38 2.38 0 0 Z " fill="#D1A218" transform="translate(231,227)"/>
<path d="M0 0 C-1.5830577 4.2742558 -4.50568404 6.26531794 -8 9 C-7.34 7.35 -6.68 5.7 -6 4 C-6.66 3.67 -7.32 3.34 -8 3 C-3.375 0 -3.375 0 0 0 Z " fill="#D6AA21" transform="translate(161,164)"/>
<path d="M0 0 C0.33 0.66 0.66 1.32 1 2 C0.67 2.99 0.34 3.98 0 5 C-0.66 5 -1.32 5 -2 5 C-2.226875 5.598125 -2.45375 6.19625 -2.6875 6.8125 C-4.33811133 9.56351888 -6.1972081 10.52484637 -9 12 C-7.55575365 8.76138697 -5.74227753 6.38030837 -3.375 3.75 C-2.74335937 3.04359375 -2.11171875 2.3371875 -1.4609375 1.609375 C-0.97882813 1.07828125 -0.49671875 0.5471875 0 0 Z " fill="#D1A81C" transform="translate(119,143)"/>
<path d="M0 0 C1.29567565 2.5913513 1.34250494 4.12295849 1 7 C-0.8125 9.3125 -0.8125 9.3125 -3 11 C-3.99 11 -4.98 11 -6 11 C-4.54955729 6.89041233 -2.48889248 3.56741255 0 0 Z " fill="#D1A41B" transform="translate(109,155)"/>
<path d="M0 0 C0.66 0.33 1.32 0.66 2 1 C1.125 5.75 1.125 5.75 0 8 C0.66 8.33 1.32 8.66 2 9 C1.34 10.65 0.68 12.3 0 14 C-0.66 14 -1.32 14 -2 14 C-1.85795259 12.41632253 -1.71119847 10.83306682 -1.5625 9.25 C-1.48128906 8.36828125 -1.40007812 7.4865625 -1.31640625 6.578125 C-1.03761535 4.30649548 -0.61209423 2.20148177 0 0 Z " fill="#1A3433" transform="translate(188,316)"/>
<path d="M0 0 C0.66 0.33 1.32 0.66 2 1 C-1.96 4.465 -1.96 4.465 -6 8 C-6.33 7.01 -6.66 6.02 -7 5 C-4.63707344 2.47411298 -3.33537489 1.11179163 0 0 Z " fill="#D2A418" transform="translate(185,139)"/>
<path d="M0 0 C0.99 0.99 1.98 1.98 3 3 C1.7934375 4.175625 1.7934375 4.175625 0.5625 5.375 C-1.98690417 7.71982856 -1.98690417 7.71982856 -3 10 C-3.66 10 -4.32 10 -5 10 C-3.84414715 6.08788267 -2.64465038 3.1254959 0 0 Z " fill="#D3A41E" transform="translate(117,185)"/>
<path d="M0 0 C1.37562854 1.28965176 2.70766393 2.62689293 4 4 C4 4.66 4 5.32 4 6 C0.7 6 -2.6 6 -6 6 C-5.01 5.34 -4.02 4.68 -3 4 C-2.67 3.34 -2.34 2.68 -2 2 C-1.34 2 -0.68 2 0 2 C0 1.34 0 0.68 0 0 Z " fill="#093337" transform="translate(356,325)"/>
<path d="M0 0 C1.65 0.33 3.3 0.66 5 1 C4.02433888 2.16959987 3.044375 3.33561177 2.0625 4.5 C1.51722656 5.1496875 0.97195312 5.799375 0.41015625 6.46875 C-0.05519531 6.9740625 -0.52054688 7.479375 -1 8 C-1.33 8 -1.66 8 -2 8 C-2.20086443 4.28400809 -2.1519437 3.22791555 0 0 Z " fill="#D0A615" transform="translate(244,233)"/>
<path d="M0 0 C0.33 0.99 0.66 1.98 1 3 C-0.8125 6.1875 -0.8125 6.1875 -3 9 C-3.66 9 -4.32 9 -5 9 C-5 9.66 -5 10.32 -5 11 C-5.66 11 -6.32 11 -7 11 C-5.20974068 7.12110481 -3.03770253 3.03770253 0 0 Z " fill="#CFA323" transform="translate(202,219)"/>
<path d="M0 0 C1.32 0.66 2.64 1.32 4 2 C3.67 3.32 3.34 4.64 3 6 C2.4225 5.814375 1.845 5.62875 1.25 5.4375 C-1.20692525 4.95976454 -2.64397534 5.24270636 -5 6 C-3.35 4.02 -1.7 2.04 0 0 Z " fill="#DEB10F" transform="translate(192,68)"/>
<path d="M0 0 C4.29 0.33 8.58 0.66 13 1 C9.13209997 2.93395001 7.8499541 3.23289353 3.75 3.125 C2.85796875 3.10695313 1.9659375 3.08890625 1.046875 3.0703125 C0.03367188 3.03550781 0.03367188 3.03550781 -1 3 C-0.67 2.01 -0.34 1.02 0 0 Z " fill="#1D4240" transform="translate(158,288)"/>
<path d="M0 0 C0.66 0 1.32 0 2 0 C2.33 3.63 2.66 7.26 3 11 C2.67 10.01 2.34 9.02 2 8 C1.34 8 0.68 8 0 8 C-0.33 8.66 -0.66 9.32 -1 10 C-0.67 6.7 -0.34 3.4 0 0 Z " fill="#CBA633" transform="translate(266,168)"/>
<path d="M0 0 C0 3.29222682 -0.41495585 4.02719653 -2.25 6.625 C-2.66765625 7.23601562 -3.0853125 7.84703125 -3.515625 8.4765625 C-5.27840279 10.28572918 -6.53955077 10.61095461 -9 11 C-8.06558465 9.72689688 -7.12732889 8.456612 -6.1875 7.1875 C-5.66542969 6.47980469 -5.14335937 5.77210938 -4.60546875 5.04296875 C-3.16871123 3.21468607 -1.68184237 1.60103312 0 0 Z " fill="#C8A11F" transform="translate(210,248)"/>
<path d="M0 0 C0.99 0.33 1.98 0.66 3 1 C1.55609075 4.80666984 -0.34952803 6.26602582 -4 8 C-4.66 7.67 -5.32 7.34 -6 7 C-4.71937515 5.2925002 -3.38232443 3.62626404 -2 2 C-1.34 2 -0.68 2 0 2 C0 1.34 0 0.68 0 0 Z " fill="#CDA71E" transform="translate(213,206)"/>
<path d="M0 0 C0 3.41321235 -0.66867466 4.39472885 -2.5 7.1875 C-2.9640625 7.90292969 -3.428125 8.61835937 -3.90625 9.35546875 C-4.2671875 9.89816406 -4.628125 10.44085938 -5 11 C-5.66 9.68 -6.32 8.36 -7 7 C-6.01 7 -5.02 7 -4 7 C-3.67 5.02 -3.34 3.04 -3 1 C-2.01 0.67 -1.02 0.34 0 0 Z " fill="#D1A41B" transform="translate(201,80)"/>
<path d="M0 0 C1.125 3.75 1.125 3.75 0 6 C-0.99 6 -1.98 6 -3 6 C-3 6.99 -3 7.98 -3 9 C-3.99 9 -4.98 9 -6 9 C-6 8.34 -6 7.68 -6 7 C-5.34 7 -4.68 7 -4 7 C-3.71125 6.21625 -3.4225 5.4325 -3.125 4.625 C-2 2 -2 2 0 0 Z " fill="#D1A321" transform="translate(256,198)"/>
<path d="M0 0 C0.66 0 1.32 0 2 0 C2.66 1.65 3.32 3.3 4 5 C2.02 5.99 2.02 5.99 0 7 C0 6.34 0 5.68 0 5 C-0.66 5 -1.32 5 -2 5 C-1.34 3.35 -0.68 1.7 0 0 Z " fill="#D3A215" transform="translate(123,176)"/>
<path d="M0 0 C0.66 0 1.32 0 2 0 C1.67 3.96 1.34 7.92 1 12 C0.34 11.34 -0.32 10.68 -1 10 C-0.9765625 7.6171875 -0.9765625 7.6171875 -0.625 4.875 C-0.51414062 3.96492187 -0.40328125 3.05484375 -0.2890625 2.1171875 C-0.19367188 1.41851562 -0.09828125 0.71984375 0 0 Z " fill="#D4A60C" transform="translate(93,165)"/>
<path d="M0 0 C0.33 0 0.66 0 1 0 C1.02712066 1.43739513 1.04645067 2.87493863 1.0625 4.3125 C1.07410156 5.11300781 1.08570312 5.91351563 1.09765625 6.73828125 C1 9 1 9 0 12 C-0.66 12 -1.32 12 -2 12 C-1.85831863 10.56208484 -1.71148957 9.1246763 -1.5625 7.6875 C-1.48128906 6.88699219 -1.40007812 6.08648437 -1.31640625 5.26171875 C-1 3 -1 3 0 0 Z " fill="#CDA723" transform="translate(94,140)"/>
<path d="M0 0 C1 3 1 3 0.22265625 4.82421875 C-0.8515625 6.54947917 -1.92578125 8.27473958 -3 10 C-3.144375 9.401875 -3.28875 8.80375 -3.4375 8.1875 C-3.8872439 6.43849596 -4.42892341 4.71322977 -5 3 C-3.68 3 -2.36 3 -1 3 C-0.67 2.01 -0.34 1.02 0 0 Z " fill="#CFA523" transform="translate(206,70)"/>
<path d="M0 0 C0.66 0 1.32 0 2 0 C2 1.98 2 3.96 2 6 C-0.31 6.33 -2.62 6.66 -5 7 C-3.625 4.5 -3.625 4.5 -2 2 C-1.34 2 -0.68 2 0 2 C0 1.34 0 0.68 0 0 Z " fill="#D0A721" transform="translate(130,169)"/>
<path d="M0 0 C0.66 1.32 1.32 2.64 2 4 C-0.3125 6.0625 -0.3125 6.0625 -3 8 C-3.99 7.67 -4.98 7.34 -6 7 C-4.02 4.69 -2.04 2.38 0 0 Z " fill="#D1A11C" transform="translate(232,147)"/>
<path d="M0 0 C0.33 0.66 0.66 1.32 1 2 C0.34 2 -0.32 2 -1 2 C-2.20628008 4.33214148 -3.1654738 6.49642139 -4 9 C-5.65 9.33 -7.3 9.66 -9 10 C-8.06409496 8.8944811 -7.12620142 7.79064547 -6.1875 6.6875 C-5.66542969 6.07261719 -5.14335937 5.45773438 -4.60546875 4.82421875 C-3.12827531 3.14575321 -1.59960869 1.56117966 0 0 Z " fill="#CEA527" transform="translate(180,43)"/>
<path d="M0 0 C0.33 0.66 0.66 1.32 1 2 C0.0625 4.625 0.0625 4.625 -1 7 C-2.65 7 -4.3 7 -6 7 C-4.02 4.69 -2.04 2.38 0 0 Z " fill="#D4A423" transform="translate(185,114)"/>
<path d="M0 0 C-0.60183749 2.02045442 -1.27306096 4.02111039 -2 6 C-2.99 6.495 -2.99 6.495 -4 7 C-4.33 5.35 -4.66 3.7 -5 2 C-2 0 -2 0 0 0 Z " fill="#D3A71F" transform="translate(263,213)"/>
<path d="M0 0 C1.485 0.99 1.485 0.99 3 2 C1.25 6.875 1.25 6.875 -1 8 C-1.04241723 5.66705225 -1.04092937 3.33297433 -1 1 C-0.67 0.67 -0.34 0.34 0 0 Z " fill="#D3A412" transform="translate(250,186)"/>
<path d="M0 0 C2.83374881 3.20336822 3.5205537 5.78087253 4 10 C3.7525 9.38125 3.505 8.7625 3.25 8.125 C1.79371361 5.64931313 0.62187494 5.04874998 -2 4 C-1.34 4 -0.68 4 0 4 C0 2.68 0 1.36 0 0 Z " fill="#CCA627" transform="translate(247,113)"/>
<path d="M0 0 C3.08089673 2.77280706 4.68775452 5.06326356 6 9 C2.96101874 7.98700625 1.87860833 7.5048111 0 5 C-0.1875 2.3125 -0.1875 2.3125 0 0 Z " fill="#153A35" transform="translate(350,316)"/>
<path d="M0 0 C1.67542976 0.28604898 3.34385343 0.61781233 5 1 C3.35 2.65 1.7 4.3 0 6 C-0.38218767 4.34385343 -0.71395102 2.67542976 -1 1 C-0.67 0.67 -0.34 0.34 0 0 Z " fill="#D2A519" transform="translate(167,114)"/>
<path d="M0 0 C0.66 0 1.32 0 2 0 C2.66 1.32 3.32 2.64 4 4 C2.68 4.99 1.36 5.98 0 7 C-1.125 2.25 -1.125 2.25 0 0 Z " fill="#D1A515" transform="translate(161,81)"/>
<path d="M0 0 C0.33 0.66 0.66 1.32 1 2 C-0.25 4.625 -0.25 4.625 -2 7 C-2.99 7 -3.98 7 -5 7 C-4.60196439 4.11424181 -4.20990931 3.17810487 -1.9375 1.25 C-1.298125 0.8375 -0.65875 0.425 0 0 Z " fill="#1C413F" transform="translate(193,317)"/>
<path d="M0 0 C0.66 0 1.32 0 2 0 C2 1.32 2 2.64 2 4 C2.66 4 3.32 4 4 4 C4 5.65 4 7.3 4 9 C2.5 7.75 2.5 7.75 1 6 C1 4.68 1 3.36 1 2 C0.34 1.67 -0.32 1.34 -1 1 C-0.67 0.67 -0.34 0.34 0 0 Z " fill="#D0A922" transform="translate(109,223)"/>
<path d="M0 0 C0 0.99 0 1.98 0 3 C-2.5 5.1875 -2.5 5.1875 -5 7 C-5 5.68 -5 4.36 -5 3 C-4.34 3 -3.68 3 -3 3 C-3 2.34 -3 1.68 -3 1 C-2.01 0.67 -1.02 0.34 0 0 Z " fill="#CBA424" transform="translate(240,164)"/>
<path d="M0 0 C1.4606285 2.64738916 2 3.89448334 2 7 C0.35 7 -1.3 7 -3 7 C-1.125 2.25 -1.125 2.25 0 0 Z " fill="#D2A712" transform="translate(204,51)"/>
<path d="M0 0 C1.65 0.33 3.3 0.66 5 1 C4.67 2.32 4.34 3.64 4 5 C2.02 4.34 0.04 3.68 -2 3 C-1.34 2.67 -0.68 2.34 0 2 C0 1.34 0 0.68 0 0 Z " fill="#C7A734" transform="translate(123,238)"/>
<path d="M0 0 C1.98 0.495 1.98 0.495 4 1 C2.625 3 2.625 3 1 5 C0.34 5 -0.32 5 -1 5 C-0.67 3.35 -0.34 1.7 0 0 Z " fill="#D5A623" transform="translate(229,212)"/>
<path d="M0 0 C0.33 0.66 0.66 1.32 1 2 C0.06553465 4.03144641 -0.93224776 6.03533587 -2 8 C-2.33 8 -2.66 8 -3 8 C-3 5.69 -3 3.38 -3 1 C-2.01 0.67 -1.02 0.34 0 0 Z " fill="#CEA522" transform="translate(260,174)"/>
<path d="M0 0 C0.99 0.33 1.98 0.66 3 1 C3 2.65 3 4.3 3 6 C2.01 6 1.02 6 0 6 C0 4.02 0 2.04 0 0 Z " fill="#D2A610" transform="translate(244,111)"/>
<path d="M0 0 C0.99 0.33 1.98 0.66 3 1 C1.35 2.65 -0.3 4.3 -2 6 C-2 4.35 -2 2.7 -2 1 C-1.34 0.67 -0.68 0.34 0 0 Z " fill="#CAA21A" transform="translate(171,74)"/>
<path d="M0 0 C0.33 0 0.66 0 1 0 C1 2.64 1 5.28 1 8 C0.01 8 -0.98 8 -2 8 C-1.125 1.125 -1.125 1.125 0 0 Z " fill="#CEA32D" transform="translate(207,42)"/>
<path d="M0 0 C0.66 0 1.32 0 2 0 C1.37240135 2.92879371 0.41377341 5.36095629 -1 8 C-1.66 7.67 -2.32 7.34 -3 7 C-2.01 4.69 -1.02 2.38 0 0 Z " fill="#D4C632" transform="translate(207,35)"/>
<path d="" fill="#004040" transform="translate(0,0)"/>
<path d="" fill="#004040" transform="translate(0,0)"/>
<path d="" fill="#000000" transform="translate(0,0)"/>
<path d="" fill="#000000" transform="translate(0,0)"/>
<path d="" fill="#606060" transform="translate(0,0)"/>
</svg>
